PathFileType	4	(X/Y/Z)	D:\Share\Shared_Data\Ergonomics\Sit To Stand Pertubation\S2\Unperturbed.trc
DataRate	CameraRate	NumFrames	NumMarkers	Units	OrigDataRate	OrigDataStartFrame	OrigNumFrames	
100	100	16	18	m	100	2741	261
Frame#	Time	R_Toe			R_ASIS			R_Pelvis			V_Sacral			L_Pelvis			L_ASIS			Clavical			R_Acromium			L_Acromium			Sternum			Torso			R_Thigh_Med			R_Thigh_Lat			R_Thigh			R_Shank_Med			R_Shank_Lat			R_Shank			R_Heel			
		X1	Y1	Z1	X2	Y2	Z2	X3	Y3	Z3	X4	Y4	Z4	X5	Y5	Z5	X6	Y6	Z6	X7	Y7	Z7	X8	Y8	Z8	X9	Y9	Z9	X10	Y10	Z10	X11	Y11	Z11	X12	Y12	Z12	X13	Y13	Z13	X14	Y14	Z14	X15	Y15	Z15	X16	Y16	Z16	X17	Y17	Z17	X18	Y18	Z18	

2741	27.4	0.44089996	0.065807655	0.14473196	0.22842595	0.87987256	0.15649574	0.16677351	0.91960297	0.20204791	0.016368498	0.94294427	0.046844326	0.12392635	0.93837897	-0.13652754	0.21319365	0.89933923	-0.11055104	0.47825003	1.1847128	0.024342754	0.42865674	1.2527593	0.23236131	0.4108364	1.2763088	-0.15565471	0.42207269	1.0330845	0.023045191	0.46124744	1.1536943	-0.087029564	0.43464087	0.48239294	0.10909731	0.42026889	0.49901782	0.20739041	0.3779574	0.6899212	0.17738565	0.30688287	0.1066124	0.1097804	0.28795483	0.099513924	0.20268335	0.37912781	0.35183694	0.2288744	0.20351079	0.058789833	0.15470445
2742	27.41	0.4408754	0.065737991	0.14483307	0.23118454	0.88509564	0.15680779	0.16974036	0.92432367	0.20248741	0.019541782	0.94783844	0.047190636	0.1269045	0.94301898	-0.13618587	0.21634744	0.90446411	-0.11013707	0.4786134	1.1930165	0.024972723	0.42858633	1.2604044	0.23302251	0.41045917	1.2841437	-0.15498112	0.42412561	1.0407906	0.023394354	0.46202161	1.1618627	-0.086594742	0.43325739	0.48287173	0.10964495	0.41889761	0.49951587	0.20773564	0.37928735	0.69074158	0.17794545	0.30683722	0.10664096	0.10982609	0.28788272	0.099512794	0.20268123	0.3779592	0.35223743	0.22922372	0.20353677	0.058772121	0.15468742
2743	27.42	0.44085614	0.065665085	0.14493604	0.2340399	0.89028546	0.15712775	0.17271201	0.92897095	0.20288293	0.022743801	0.9526507	0.047487976	0.12992329	0.94758521	-0.1358716	0.21955641	0.90955823	-0.10974091	0.47891888	1.2012805	0.02559536	0.42843707	1.2680265	0.23366451	0.41003409	1.2919036	-0.15433023	0.42616403	1.0484658	0.023753626	0.46277448	1.1699871	-0.086166336	0.43183344	0.48335611	0.11016717	0.41748587	0.50003391	0.20806059	0.38058298	0.69152472	0.17847292	0.30678635	0.10666533	0.10986015	0.28780911	0.099517036	0.20266425	0.37675449	0.35265125	0.2295542	0.20356302	0.058763832	0.15467125
2744	27.43	0.44084189	0.065592506	0.14503389	0.23701289	0.89542133	0.15746809	0.17569868	0.93353033	0.20323848	0.025975519	0.95737567	0.04773703	0.13298183	0.95207581	-0.13558247	0.22282808	0.9146178	-0.10936141	0.47916858	1.2094966	0.026207552	0.42820358	1.2756145	0.23428482	0.40956024	1.2995815	-0.15370433	0.42818381	1.0561047	0.024120783	0.46350696	1.1780614	-0.085745636	0.4303736	0.48384387	0.11065603	0.41603955	0.5005675	0.20835533	0.38185101	0.69226837	0.17896104	0.30672873	0.10668561	0.10988463	0.28773419	0.099525352	0.20263559	0.37551721	0.35307843	0.2298597	0.20359015	0.058761883	0.15465512
2745	27.44	0.44083093	0.065523628	0.14512054	0.24010176	0.90048596	0.15783189	0.17871399	0.93799353	0.20355508	0.029236938	0.96200757	0.047937702	0.13608	0.95648792	-0.13531709	0.22616844	0.91963574	-0.10899958	0.47936624	1.2176584	0.026806326	0.42788016	1.2831588	0.23488185	0.40903726	1.3071702	-0.15310637	0.43018024	1.0637017	0.024491295	0.46421738	1.1860784	-0.085334534	0.42888202	0.48433221	0.11110524	0.41456491	0.50111057	0.2086114	0.38309689	0.69296936	0.17940372	0.30666287	0.10670214	0.10990227	0.28765775	0.099536232	0.20259924	0.37425174	0.35351788	0.23013579	0.20361836	0.058762844	0.1546386
2746	27.45	0.44082144	0.065461533	0.14519278	0.24329294	0.90546808	0.15821594	0.1817708	0.94235779	0.20383217	0.032527016	0.96654083	0.048089432	0.13921802	0.96081885	-0.1350751	0.22957837	0.9246015	-0.10866028	0.47951675	1.2257596	0.027388624	0.4274614	1.2906505	0.23545482	0.40846432	1.3146626	-0.15253925	0.43215024	1.0712499	0.024859308	0.46489984	1.1940308	-0.084935081	0.42736371	0.48481802	0.11150928	0.41306851	0.50165671	0.20882301	0.38432498	0.69362537	0.17979573	0.30658755	0.10671516	0.10991618	0.28757962	0.099548103	0.20255917	0.37296307	0.35396722	0.23037892	0.20364716	0.05876358	0.15462161
2747	27.46	0.44081198	0.065408669	0.14525031	0.24656699	0.91036096	0.15861382	0.18487505	0.94662427	0.20406935	0.035843651	0.97096985	0.048192162	0.1423961	0.96506586	-0.13485675	0.23305142	0.92950262	-0.10835159	0.47962579	1.2337941	0.027951359	0.42694272	1.2980812	0.23600299	0.40783948	1.3220522	-0.15200476	0.43409274	1.0787432	0.025219286	0.46554276	1.2019111	-0.084549248	0.42582391	0.48529776	0.11186327	0.41155676	0.50220053	0.20898703	0.38553854	0.69423474	0.18013289	0.30650201	0.10672453	0.10992937	0.28750037	0.099559792	0.20251852	0.37165704	0.35442307	0.23058577	0.2036757	0.058761677	0.15460435
2748	27.47	0.44080215	0.065366501	0.14529465	0.24990054	0.91516138	0.15901651	0.18801883	0.95079596	0.20426761	0.039184025	0.97528833	0.048247055	0.14561455	0.96922583	-0.13466104	0.23657646	0.93432727	-0.10808099	0.47969882	1.2417556	0.028491774	0.42632098	1.3054424	0.23652582	0.40715979	1.3293326	-0.15150375	0.43600717	1.086175	0.025567255	0.46613174	1.2097103	-0.084178543	0.42426675	0.48576807	0.1121628	0.41003589	0.50273853	0.209101	0.38673969	0.69479651	0.18041216	0.30640607	0.10672977	0.10994432	0.28742081	0.099570755	0.20247922	0.37034067	0.35488208	0.23075349	0.20370314	0.058755901	0.15458696
2749	27.48	0.44079181	0.065335121	0.1453282	0.25326682	0.91986987	0.15941179	0.19117586	0.95487488	0.20443034	0.042545238	0.97948993	0.048256821	0.14887321	0.97329535	-0.13448582	0.2401432	0.93906592	-0.10785146	0.47974033	1.2496372	0.029008009	0.42559424	1.312726	0.23702306	0.40642261	1.3364966	-0.15103656	0.43789297	1.0935382	0.025901287	0.46666022	1.21742	-0.083824234	0.42269553	0.48622626	0.11240327	0.40851251	0.50327014	0.2091631	0.38792816	0.69531036	0.1806312	0.30629962	0.10673008	0.10996236	0.28734244	0.099581169	0.20244189	0.36902191	0.35534146	0.23088075	0.20372867	0.058746429	0.15456961
2750	27.49	0.44078146	0.065313408	0.1453537	0.25663562	0.92448828	0.1597854	0.19430653	0.95885901	0.20456319	0.045924946	0.98356793	0.048225777	0.15217101	0.97727155	-0.13433009	0.24374385	0.94371216	-0.10766127	0.47975223	1.2574335	0.029499371	0.42476172	1.3199226	0.23749513	0.40562671	1.3435366	-0.15060344	0.43974927	1.1008257	0.026221334	0.46713629	1.2250315	-0.083487991	0.42111362	0.48667017	0.11258056	0.40699356	0.50379742	0.20917352	0.38910184	0.69577649	0.18078842	0.30618301	0.10672456	0.10998328	0.28726639	0.099591705	0.20240587	0.36770795	0.35579898	0.23096791	0.20375188	0.058734814	0.15455254
2751	27.5	0.4407717	0.065299194	0.14537381	0.25997882	0.92901465	0.16012607	0.19737178	0.96274286	0.20467247	0.049321941	0.98751672	0.048159439	0.15550621	0.98115247	-0.13419582	0.24737094	0.94826312	-0.10750568	0.47973392	1.2651385	0.029966047	0.42382404	1.3270232	0.23794324	0.40477307	1.350443	-0.15020407	0.4415741	1.1080304	0.02652824	0.46757126	1.232537	-0.083172119	0.41952426	0.48709839	0.11269367	0.40548541	0.50432281	0.20913538	0.39025677	0.6961955	0.1808837	0.30605731	0.10671253	0.11000526	0.28719318	0.099603195	0.20236909	0.3664039	0.35625296	0.23101651	0.20377255	0.05872348	0.15453561
2752	27.51	0.44076294	0.065289886	0.14539056	0.26327859	0.93344067	0.16042996	0.20034515	0.96651843	0.20476352	0.052736149	0.99133191	0.048063271	0.15887695	0.98493744	-0.13408687	0.25101506	0.95271967	-0.10737756	0.47968207	1.272746	0.030408583	0.42278391	1.3340188	0.23836867	0.40386475	1.3572061	-0.14983769	0.44336438	1.1151455	0.02682271	0.46796777	1.2399291	-0.082878754	0.41793222	0.48751019	0.11274677	0.40399304	0.50484772	0.20905428	0.39138736	0.69656842	0.18091957	0.3059248	0.1066937	0.11002539	0.28712289	0.099616478	0.20232893	0.36511298	0.35670236	0.23102887	0.20379095	0.058715065	0.15451842
2753	27.52	0.44075546	0.065282814	0.14540536	0.26653152	0.937755	0.16070062	0.20321776	0.97017737	0.20484023	0.056167789	0.99501233	0.04794075	0.16228117	0.98862573	-0.13400595	0.25466385	0.95708661	-0.10726728	0.47959192	1.2802473	0.030827412	0.42164612	1.3409014	0.23877242	0.40290485	1.3638165	-0.14950421	0.44511649	1.1221632	0.027104929	0.46832037	1.2472006	-0.082609131	0.4163461	0.48790607	0.11274831	0.40251971	0.5053714	0.20893791	0.39248682	0.6968974	0.18090297	0.30578851	0.10666806	0.11004036	0.28705536	0.099632042	0.20228319	0.36383691	0.35714664	0.23100836	0.20380739	0.05871162	0.15449991
2754	27.53	0.44074924	0.065275787	0.14541901	0.26974869	0.941948	0.16094643	0.20600032	0.97370978	0.20490575	0.059616283	0.99855835	0.047792683	0.16571611	0.99221594	-0.13395282	0.25830197	0.96136975	-0.1071639	0.47945813	1.2876335	0.031222387	0.42041647	1.3476635	0.23915479	0.40189465	1.3702672	-0.14920476	0.44682703	1.1290759	0.02737435	0.46862195	1.2543455	-0.082363571	0.41477682	0.48828683	0.11270933	0.40106738	0.50589203	0.20879575	0.39354745	0.69718365	0.1808456	0.30565186	0.106636	0.11004745	0.28699023	0.099649963	0.20223082	0.36257697	0.35758597	0.23096075	0.20382208	0.058714207	0.15447897
2755	27.54	0.44074414	0.065267296	0.14543214	0.27295355	0.94601306	0.16117824	0.20872604	0.97710382	0.20496309	0.063079437	1.0019715	0.047617935	0.16917845	0.99570465	-0.13392534	0.26191238	0.96557269	-0.10705692	0.47927594	1.2948936	0.031592384	0.41910156	1.3542974	0.23951544	0.40083417	1.376554	-0.14893999	0.4484938	1.1358759	0.027629581	0.46886768	1.2613579	-0.082141632	0.4132348	0.48865353	0.11264322	0.39963675	0.50640726	0.20863885	0.39456256	0.69742767	0.1807635	0.30551767	0.10659852	0.11004563	0.2869267	0.099670006	0.20217206	0.36133398	0.35802051	0.23089511	0.20383495	0.058723236	0.15445499
2756	27.55	0.44074002	0.065256599	0.14544586	0.27617261	0.94994659	0.16140511	0.21144429	0.98034778	0.20501373	0.066553329	1.0052527	0.047413574	0.17266412	0.99908624	-0.13392204	0.26547711	0.96969336	-0.1069365	0.47904214	1.3020164	0.031935181	0.41770911	1.3607961	0.23985336	0.39972369	1.3826726	-0.14870908	0.45011703	1.1425552	0.027868322	0.46905695	1.2682325	-0.08194268	0.41172925	0.48900757	0.11256582	0.39822763	0.50691455	0.20847969	0.39552991	0.6976286	0.18067606	0.30538824	0.10655758	0.11003626	0.28686356	0.099691628	0.20210832	0.36010828	0.35845078	0.2308239	0.20384535	0.058739502	0.1544287
